<svg xmlns="http://www.w3.org/2000/svg" width="1200" height="800" viewBox="0 0 1200 800">
  <defs>
    <radialGradient id="gecho11" cx="50%" cy="42%" r="75%">
      <stop offset="0%" stop-color="#ff7a47" stop-opacity="0.20"/>
      <stop offset="55%" stop-color="#0a0a0a" stop-opacity="0"/>
    </radialGradient>
    <linearGradient id="bgecho11" x1="0" y1="0" x2="0" y2="1">
      <stop offset="0%" stop-color="#0a0a0a"/>
      <stop offset="100%" stop-color="#000000"/>
    </linearGradient>
  </defs>
  <rect width="1200" height="800" fill="url(#bgecho11)"/>
  <rect width="1200" height="800" fill="url(#gecho11)"/>
  <circle cx="600" cy="360" r="72" fill="none" stroke="#f5f2ec" stroke-opacity="0.24000000000000002" stroke-width="1"/><circle cx="600" cy="360" r="115.99999999999999" fill="none" stroke="#ff5a1f" stroke-opacity="0.22" stroke-width="1"/><circle cx="600" cy="360" r="160" fill="none" stroke="#f5f2ec" stroke-opacity="0.2" stroke-width="1"/><circle cx="600" cy="360" r="204" fill="none" stroke="#ff5a1f" stroke-opacity="0.18" stroke-width="1"/><circle cx="600" cy="360" r="248" fill="none" stroke="#f5f2ec" stroke-opacity="0.16" stroke-width="1"/><circle cx="600" cy="360" r="292" fill="none" stroke="#ff5a1f" stroke-opacity="0.14" stroke-width="1"/><circle cx="600" cy="360" r="336.00000000000006" fill="none" stroke="#f5f2ec" stroke-opacity="0.12000000000000001" stroke-width="1"/><circle cx="332.8" cy="342.1" r="1.7" fill="#f5f2ec" fill-opacity="0.61"/><circle cx="759.7" cy="159.8" r="0.6" fill="#f5f2ec" fill-opacity="0.57"/><circle cx="407.5" cy="217.7" r="1.5" fill="#f5f2ec" fill-opacity="0.79"/><circle cx="336.0" cy="493.6" r="1.9" fill="#f5f2ec" fill-opacity="0.31"/><circle cx="684.0" cy="520.3" r="1.3" fill="#f5f2ec" fill-opacity="0.46"/><circle cx="485.9" cy="300.1" r="1.7" fill="#f5f2ec" fill-opacity="0.60"/><circle cx="305.3" cy="512.6" r="2.2" fill="#f5f2ec" fill-opacity="0.74"/><circle cx="480.3" cy="603.5" r="1.0" fill="#f5f2ec" fill-opacity="0.24"/><circle cx="579.2" cy="25.8" r="1.1" fill="#f5f2ec" fill-opacity="0.30"/><circle cx="591.2" cy="160.7" r="1.6" fill="#f5f2ec" fill-opacity="0.60"/><circle cx="678.6" cy="254.3" r="2.3" fill="#f5f2ec" fill-opacity="0.77"/><circle cx="556.1" cy="395.8" r="0.6" fill="#f5f2ec" fill-opacity="0.79"/><circle cx="333.1" cy="364.2" r="1.0" fill="#f5f2ec" fill-opacity="0.55"/><circle cx="589.1" cy="259.6" r="1.8" fill="#f5f2ec" fill-opacity="0.23"/><circle cx="324.4" cy="452.1" r="2.6" fill="#f5f2ec" fill-opacity="0.50"/><circle cx="386.3" cy="402.4" r="0.5" fill="#f5f2ec" fill-opacity="0.71"/><circle cx="319.5" cy="503.1" r="1.1" fill="#f5f2ec" fill-opacity="0.59"/><circle cx="405.2" cy="613.9" r="0.8" fill="#f5f2ec" fill-opacity="0.28"/><circle cx="401.4" cy="164.8" r="0.7" fill="#f5f2ec" fill-opacity="0.46"/><circle cx="344.0" cy="587.9" r="2.3" fill="#f5f2ec" fill-opacity="0.64"/><circle cx="301.1" cy="532.4" r="1.7" fill="#f5f2ec" fill-opacity="0.50"/><circle cx="506.1" cy="587.0" r="0.4" fill="#f5f2ec" fill-opacity="0.82"/><circle cx="525.1" cy="565.0" r="0.7" fill="#f5f2ec" fill-opacity="0.26"/><circle cx="591.6" cy="110.3" r="1.5" fill="#f5f2ec" fill-opacity="0.27"/><circle cx="329.9" cy="262.2" r="2.3" fill="#f5f2ec" fill-opacity="0.87"/><circle cx="366.8" cy="207.8" r="1.7" fill="#f5f2ec" fill-opacity="0.54"/><circle cx="846.3" cy="512.8" r="1.8" fill="#f5f2ec" fill-opacity="0.90"/><circle cx="566.8" cy="239.4" r="0.7" fill="#f5f2ec" fill-opacity="0.65"/><circle cx="812.4" cy="325.4" r="2.4" fill="#f5f2ec" fill-opacity="0.46"/><circle cx="620.0" cy="86.9" r="0.6" fill="#f5f2ec" fill-opacity="0.40"/><circle cx="467.2" cy="156.3" r="1.8" fill="#f5f2ec" fill-opacity="0.36"/><circle cx="558.9" cy="173.8" r="0.6" fill="#f5f2ec" fill-opacity="0.59"/><circle cx="485.2" cy="458.0" r="2.2" fill="#f5f2ec" fill-opacity="0.85"/><circle cx="600.1" cy="336.0" r="1.4" fill="#f5f2ec" fill-opacity="0.80"/><circle cx="320.8" cy="240.5" r="1.8" fill="#f5f2ec" fill-opacity="0.20"/><circle cx="342.2" cy="365.9" r="0.8" fill="#f5f2ec" fill-opacity="0.77"/><circle cx="698.7" cy="398.4" r="2.6" fill="#f5f2ec" fill-opacity="0.63"/><circle cx="504.0" cy="63.5" r="2.4" fill="#f5f2ec" fill-opacity="0.89"/><circle cx="743.5" cy="403.5" r="1.7" fill="#f5f2ec" fill-opacity="0.48"/><circle cx="366.8" cy="482.7" r="0.5" fill="#f5f2ec" fill-opacity="0.24"/><circle cx="413.9" cy="401.0" r="1.3" fill="#f5f2ec" fill-opacity="0.71"/><circle cx="416.6" cy="461.5" r="1.7" fill="#f5f2ec" fill-opacity="0.46"/><circle cx="798.1" cy="331.5" r="1.4" fill="#f5f2ec" fill-opacity="0.37"/><circle cx="516.5" cy="185.5" r="1.6" fill="#f5f2ec" fill-opacity="0.65"/><circle cx="733.0" cy="362.2" r="0.8" fill="#f5f2ec" fill-opacity="0.78"/><circle cx="818.9" cy="590.4" r="0.8" fill="#f5f2ec" fill-opacity="0.64"/><circle cx="744.7" cy="101.2" r="2.2" fill="#f5f2ec" fill-opacity="0.27"/><circle cx="869.6" cy="514.2" r="0.9" fill="#f5f2ec" fill-opacity="0.28"/><circle cx="536.9" cy="448.1" r="2.3" fill="#f5f2ec" fill-opacity="0.65"/><circle cx="548.7" cy="107.0" r="2.1" fill="#f5f2ec" fill-opacity="0.69"/><circle cx="360.4" cy="557.5" r="0.9" fill="#f5f2ec" fill-opacity="0.34"/><circle cx="787.5" cy="564.8" r="0.4" fill="#f5f2ec" fill-opacity="0.59"/><circle cx="934.6" cy="293.1" r="1.5" fill="#f5f2ec" fill-opacity="0.81"/><circle cx="851.0" cy="444.8" r="2.1" fill="#f5f2ec" fill-opacity="0.38"/><circle cx="736.3" cy="346.4" r="2.3" fill="#f5f2ec" fill-opacity="0.53"/><circle cx="928.4" cy="210.8" r="1.3" fill="#f5f2ec" fill-opacity="0.52"/><circle cx="493.6" cy="401.8" r="0.8" fill="#f5f2ec" fill-opacity="0.27"/><circle cx="902.7" cy="532.8" r="1.6" fill="#f5f2ec" fill-opacity="0.60"/><circle cx="641.1" cy="685.0" r="0.6" fill="#f5f2ec" fill-opacity="0.79"/><circle cx="587.5" cy="444.2" r="1.4" fill="#f5f2ec" fill-opacity="0.47"/><circle cx="742.9" cy="519.2" r="0.7" fill="#f5f2ec" fill-opacity="0.83"/><circle cx="380.3" cy="250.6" r="2.6" fill="#f5f2ec" fill-opacity="0.44"/><circle cx="353.9" cy="254.9" r="1.0" fill="#f5f2ec" fill-opacity="0.55"/><circle cx="790.3" cy="297.4" r="1.4" fill="#f5f2ec" fill-opacity="0.48"/><circle cx="724.7" cy="478.3" r="1.8" fill="#f5f2ec" fill-opacity="0.21"/><circle cx="865.1" cy="519.6" r="0.8" fill="#f5f2ec" fill-opacity="0.35"/><circle cx="303.7" cy="484.2" r="1.7" fill="#f5f2ec" fill-opacity="0.62"/><circle cx="497.9" cy="174.3" r="2.1" fill="#f5f2ec" fill-opacity="0.85"/><circle cx="452.3" cy="610.9" r="0.6" fill="#f5f2ec" fill-opacity="0.29"/><circle cx="299.2" cy="320.0" r="0.6" fill="#f5f2ec" fill-opacity="0.84"/><circle cx="714.4" cy="294.9" r="2.4" fill="#f5f2ec" fill-opacity="0.47"/><circle cx="533.8" cy="111.7" r="2.1" fill="#f5f2ec" fill-opacity="0.88"/><circle cx="436.4" cy="415.7" r="1.1" fill="#f5f2ec" fill-opacity="0.70"/><circle cx="576.6" cy="287.9" r="2.0" fill="#f5f2ec" fill-opacity="0.29"/><circle cx="312.1" cy="488.7" r="1.3" fill="#f5f2ec" fill-opacity="0.86"/><circle cx="592.8" cy="241.7" r="0.6" fill="#f5f2ec" fill-opacity="0.32"/><circle cx="955.5" cy="394.3" r="1.0" fill="#f5f2ec" fill-opacity="0.66"/><circle cx="545.4" cy="545.7" r="2.0" fill="#f5f2ec" fill-opacity="0.73"/><circle cx="320.5" cy="146.6" r="1.6" fill="#f5f2ec" fill-opacity="0.77"/><circle cx="379.8" cy="297.0" r="1.0" fill="#f5f2ec" fill-opacity="0.83"/><circle cx="820.3" cy="506.7" r="1.4" fill="#f5f2ec" fill-opacity="0.67"/><circle cx="442.1" cy="333.7" r="1.9" fill="#f5f2ec" fill-opacity="0.40"/><circle cx="564.3" cy="460.9" r="2.4" fill="#f5f2ec" fill-opacity="0.48"/><circle cx="826.4" cy="508.4" r="1.4" fill="#f5f2ec" fill-opacity="0.34"/><circle cx="682.4" cy="392.2" r="1.3" fill="#f5f2ec" fill-opacity="0.84"/><circle cx="295.1" cy="518.4" r="1.2" fill="#f5f2ec" fill-opacity="0.44"/><circle cx="576.4" cy="342.2" r="1.2" fill="#f5f2ec" fill-opacity="0.59"/><circle cx="683.2" cy="85.6" r="1.8" fill="#f5f2ec" fill-opacity="0.87"/><circle cx="495.1" cy="262.5" r="0.6" fill="#f5f2ec" fill-opacity="0.29"/><circle cx="668.8" cy="665.7" r="0.7" fill="#f5f2ec" fill-opacity="0.29"/><circle cx="908.2" cy="484.4" r="2.0" fill="#f5f2ec" fill-opacity="0.21"/><circle cx="572.1" cy="387.2" r="0.9" fill="#f5f2ec" fill-opacity="0.76"/><circle cx="574.3" cy="364.2" r="0.5" fill="#f5f2ec" fill-opacity="0.22"/><circle cx="412.5" cy="526.4" r="0.4" fill="#f5f2ec" fill-opacity="0.81"/><circle cx="754.9" cy="271.8" r="1.2" fill="#f5f2ec" fill-opacity="0.28"/><circle cx="637.0" cy="410.7" r="1.3" fill="#f5f2ec" fill-opacity="0.73"/><circle cx="632.7" cy="149.3" r="2.3" fill="#f5f2ec" fill-opacity="0.53"/><circle cx="491.6" cy="607.3" r="1.8" fill="#f5f2ec" fill-opacity="0.66"/><circle cx="357.7" cy="535.8" r="1.4" fill="#f5f2ec" fill-opacity="0.48"/><circle cx="281.6" cy="517.7" r="1.1" fill="#f5f2ec" fill-opacity="0.64"/><circle cx="868.6" cy="467.6" r="0.7" fill="#f5f2ec" fill-opacity="0.64"/><circle cx="657.7" cy="659.4" r="2.0" fill="#f5f2ec" fill-opacity="0.34"/><circle cx="829.6" cy="307.9" r="1.2" fill="#f5f2ec" fill-opacity="0.35"/><circle cx="944.6" cy="384.9" r="0.7" fill="#f5f2ec" fill-opacity="0.56"/><circle cx="814.7" cy="110.7" r="0.7" fill="#f5f2ec" fill-opacity="0.83"/><circle cx="378.7" cy="509.0" r="1.2" fill="#f5f2ec" fill-opacity="0.45"/><circle cx="651.3" cy="392.4" r="1.0" fill="#f5f2ec" fill-opacity="0.24"/><circle cx="515.7" cy="612.9" r="1.4" fill="#f5f2ec" fill-opacity="0.37"/><circle cx="311.8" cy="322.9" r="2.1" fill="#f5f2ec" fill-opacity="0.85"/><circle cx="686.5" cy="569.0" r="0.7" fill="#f5f2ec" fill-opacity="0.69"/><circle cx="542.9" cy="483.8" r="1.8" fill="#f5f2ec" fill-opacity="0.38"/><circle cx="757.0" cy="593.8" r="0.8" fill="#f5f2ec" fill-opacity="0.37"/><circle cx="604.2" cy="397.2" r="0.6" fill="#f5f2ec" fill-opacity="0.24"/><circle cx="482.4" cy="578.3" r="1.1" fill="#f5f2ec" fill-opacity="0.88"/><circle cx="541.7" cy="78.9" r="1.0" fill="#f5f2ec" fill-opacity="0.67"/><circle cx="295.4" cy="514.3" r="1.3" fill="#f5f2ec" fill-opacity="0.74"/><circle cx="683.4" cy="507.7" r="2.5" fill="#f5f2ec" fill-opacity="0.40"/><circle cx="910.6" cy="492.0" r="2.3" fill="#f5f2ec" fill-opacity="0.38"/><circle cx="741.9" cy="360.5" r="1.5" fill="#f5f2ec" fill-opacity="0.23"/><circle cx="461.4" cy="105.7" r="1.9" fill="#f5f2ec" fill-opacity="0.57"/><circle cx="687.7" cy="676.7" r="2.5" fill="#f5f2ec" fill-opacity="0.66"/><circle cx="756.8" cy="489.6" r="1.1" fill="#f5f2ec" fill-opacity="0.55"/><circle cx="725.8" cy="51.0" r="0.5" fill="#f5f2ec" fill-opacity="0.39"/><circle cx="320.5" cy="565.7" r="1.7" fill="#f5f2ec" fill-opacity="0.53"/><circle cx="777.0" cy="576.5" r="1.6" fill="#f5f2ec" fill-opacity="0.48"/><circle cx="802.5" cy="224.2" r="2.5" fill="#f5f2ec" fill-opacity="0.30"/><circle cx="619.5" cy="622.3" r="2.1" fill="#f5f2ec" fill-opacity="0.42"/><circle cx="586.9" cy="438.1" r="1.1" fill="#f5f2ec" fill-opacity="0.78"/><circle cx="754.6" cy="246.8" r="1.4" fill="#f5f2ec" fill-opacity="0.51"/><circle cx="410.9" cy="488.7" r="2.0" fill="#f5f2ec" fill-opacity="0.28"/><circle cx="519.3" cy="504.3" r="2.5" fill="#f5f2ec" fill-opacity="0.31"/><circle cx="878.9" cy="377.1" r="0.9" fill="#f5f2ec" fill-opacity="0.20"/><circle cx="740.3" cy="109.5" r="0.7" fill="#f5f2ec" fill-opacity="0.73"/><circle cx="698.2" cy="363.2" r="0.8" fill="#f5f2ec" fill-opacity="0.23"/><circle cx="955.1" cy="379.0" r="2.3" fill="#f5f2ec" fill-opacity="0.74"/><circle cx="427.7" cy="151.1" r="2.1" fill="#f5f2ec" fill-opacity="0.38"/><circle cx="817.8" cy="425.0" r="0.7" fill="#f5f2ec" fill-opacity="0.39"/><circle cx="436.1" cy="458.3" r="0.7" fill="#f5f2ec" fill-opacity="0.81"/><circle cx="258.4" cy="403.4" r="2.0" fill="#f5f2ec" fill-opacity="0.30"/><circle cx="301.6" cy="329.7" r="0.4" fill="#f5f2ec" fill-opacity="0.48"/><circle cx="502.5" cy="65.9" r="1.2" fill="#f5f2ec" fill-opacity="0.64"/><circle cx="440.6" cy="414.5" r="1.7" fill="#f5f2ec" fill-opacity="0.88"/><circle cx="629.1" cy="449.7" r="1.1" fill="#f5f2ec" fill-opacity="0.54"/><circle cx="491.2" cy="637.1" r="2.5" fill="#f5f2ec" fill-opacity="0.49"/><circle cx="513.2" cy="447.5" r="1.9" fill="#f5f2ec" fill-opacity="0.51"/><circle cx="598.5" cy="477.9" r="0.4" fill="#f5f2ec" fill-opacity="0.59"/><circle cx="691.7" cy="608.7" r="1.2" fill="#f5f2ec" fill-opacity="0.80"/><circle cx="667.5" cy="266.9" r="1.2" fill="#f5f2ec" fill-opacity="0.48"/><circle cx="575.9" cy="490.8" r="2.2" fill="#f5f2ec" fill-opacity="0.35"/><circle cx="500.0" cy="318.9" r="1.5" fill="#f5f2ec" fill-opacity="0.62"/><circle cx="570.0" cy="125.2" r="1.5" fill="#f5f2ec" fill-opacity="0.86"/><circle cx="800.2" cy="583.3" r="1.3" fill="#f5f2ec" fill-opacity="0.73"/><circle cx="346.9" cy="183.2" r="1.5" fill="#f5f2ec" fill-opacity="0.68"/><circle cx="800.5" cy="375.5" r="1.3" fill="#f5f2ec" fill-opacity="0.67"/><circle cx="378.3" cy="544.9" r="1.7" fill="#f5f2ec" fill-opacity="0.66"/><circle cx="614.3" cy="333.7" r="2.0" fill="#f5f2ec" fill-opacity="0.74"/><circle cx="334.6" cy="276.0" r="0.8" fill="#f5f2ec" fill-opacity="0.31"/><circle cx="454.7" cy="326.3" r="1.4" fill="#f5f2ec" fill-opacity="0.49"/><circle cx="633.0" cy="460.3" r="1.1" fill="#f5f2ec" fill-opacity="0.74"/><circle cx="416.7" cy="101.0" r="0.7" fill="#f5f2ec" fill-opacity="0.31"/><circle cx="874.7" cy="412.7" r="2.5" fill="#f5f2ec" fill-opacity="0.68"/><circle cx="684.3" cy="535.5" r="1.4" fill="#f5f2ec" fill-opacity="0.26"/><circle cx="250.7" cy="401.2" r="1.5" fill="#f5f2ec" fill-opacity="0.50"/><circle cx="859.1" cy="493.2" r="1.4" fill="#f5f2ec" fill-opacity="0.90"/><circle cx="512.1" cy="471.7" r="2.4" fill="#f5f2ec" fill-opacity="0.58"/><circle cx="620.0" cy="511.2" r="1.1" fill="#f5f2ec" fill-opacity="0.59"/><circle cx="648.6" cy="28.0" r="0.8" fill="#f5f2ec" fill-opacity="0.61"/><circle cx="571.8" cy="101.1" r="2.5" fill="#f5f2ec" fill-opacity="0.56"/><circle cx="728.9" cy="198.9" r="0.5" fill="#f5f2ec" fill-opacity="0.88"/><circle cx="518.0" cy="276.0" r="0.6" fill="#f5f2ec" fill-opacity="0.30"/><circle cx="476.6" cy="616.2" r="1.9" fill="#f5f2ec" fill-opacity="0.47"/><circle cx="327.6" cy="258.0" r="1.9" fill="#f5f2ec" fill-opacity="0.48"/><circle cx="885.9" cy="510.8" r="0.7" fill="#f5f2ec" fill-opacity="0.59"/><circle cx="912.4" cy="232.9" r="2.6" fill="#f5f2ec" fill-opacity="0.51"/><circle cx="404.2" cy="633.2" r="2.0" fill="#f5f2ec" fill-opacity="0.72"/><circle cx="708.7" cy="258.6" r="1.0" fill="#f5f2ec" fill-opacity="0.67"/><circle cx="561.0" cy="587.6" r="1.9" fill="#f5f2ec" fill-opacity="0.58"/><circle cx="737.5" cy="275.9" r="0.4" fill="#f5f2ec" fill-opacity="0.67"/><circle cx="468.1" cy="116.3" r="2.5" fill="#f5f2ec" fill-opacity="0.33"/><circle cx="827.1" cy="626.3" r="1.8" fill="#f5f2ec" fill-opacity="0.38"/><circle cx="515.3" cy="637.2" r="1.9" fill="#f5f2ec" fill-opacity="0.87"/><circle cx="503.5" cy="529.5" r="0.6" fill="#f5f2ec" fill-opacity="0.23"/><circle cx="479.4" cy="294.7" r="2.1" fill="#f5f2ec" fill-opacity="0.67"/><circle cx="606.1" cy="145.8" r="0.7" fill="#f5f2ec" fill-opacity="0.68"/><circle cx="918.2" cy="351.3" r="1.0" fill="#f5f2ec" fill-opacity="0.40"/><circle cx="735.8" cy="520.1" r="2.0" fill="#f5f2ec" fill-opacity="0.20"/><circle cx="474.8" cy="342.7" r="1.7" fill="#f5f2ec" fill-opacity="0.81"/><circle cx="953.9" cy="281.6" r="1.1" fill="#f5f2ec" fill-opacity="0.78"/><circle cx="348.8" cy="355.8" r="2.3" fill="#f5f2ec" fill-opacity="0.28"/><circle cx="583.2" cy="98.3" r="2.3" fill="#f5f2ec" fill-opacity="0.41"/><circle cx="643.8" cy="440.5" r="1.9" fill="#f5f2ec" fill-opacity="0.63"/><circle cx="812.3" cy="342.7" r="0.6" fill="#f5f2ec" fill-opacity="0.53"/><circle cx="825.4" cy="212.0" r="1.8" fill="#f5f2ec" fill-opacity="0.82"/><circle cx="527.1" cy="334.8" r="1.6" fill="#f5f2ec" fill-opacity="0.32"/><circle cx="656.0" cy="595.1" r="1.8" fill="#f5f2ec" fill-opacity="0.52"/><circle cx="615.5" cy="384.5" r="1.1" fill="#f5f2ec" fill-opacity="0.29"/><circle cx="346.6" cy="173.3" r="1.7" fill="#f5f2ec" fill-opacity="0.26"/><circle cx="546.5" cy="290.1" r="0.9" fill="#f5f2ec" fill-opacity="0.38"/><circle cx="456.9" cy="397.5" r="0.6" fill="#f5f2ec" fill-opacity="0.87"/><circle cx="662.1" cy="457.9" r="2.4" fill="#f5f2ec" fill-opacity="0.30"/><circle cx="888.5" cy="568.4" r="0.9" fill="#f5f2ec" fill-opacity="0.36"/><circle cx="770.1" cy="123.1" r="1.9" fill="#f5f2ec" fill-opacity="0.76"/><circle cx="617.7" cy="25.6" r="2.2" fill="#f5f2ec" fill-opacity="0.36"/><circle cx="418.8" cy="466.9" r="2.3" fill="#f5f2ec" fill-opacity="0.35"/><circle cx="908.1" cy="396.7" r="1.4" fill="#f5f2ec" fill-opacity="0.38"/><circle cx="846.2" cy="424.2" r="1.8" fill="#f5f2ec" fill-opacity="0.27"/><circle cx="786.2" cy="216.3" r="0.5" fill="#f5f2ec" fill-opacity="0.41"/><circle cx="797.5" cy="629.2" r="0.7" fill="#f5f2ec" fill-opacity="0.61"/><circle cx="285.7" cy="457.3" r="2.3" fill="#f5f2ec" fill-opacity="0.25"/><circle cx="638.6" cy="355.3" r="1.3" fill="#f5f2ec" fill-opacity="0.88"/><circle cx="601.1" cy="368.2" r="2.3" fill="#f5f2ec" fill-opacity="0.56"/><circle cx="325.1" cy="318.7" r="1.9" fill="#f5f2ec" fill-opacity="0.44"/><circle cx="279.6" cy="286.3" r="2.6" fill="#f5f2ec" fill-opacity="0.54"/><circle cx="714.9" cy="41.9" r="0.7" fill="#f5f2ec" fill-opacity="0.35"/><circle cx="581.9" cy="303.5" r="2.2" fill="#f5f2ec" fill-opacity="0.62"/><circle cx="480.9" cy="124.3" r="1.3" fill="#f5f2ec" fill-opacity="0.79"/><circle cx="830.8" cy="259.0" r="2.5" fill="#f5f2ec" fill-opacity="0.22"/><circle cx="735.8" cy="412.3" r="1.3" fill="#f5f2ec" fill-opacity="0.71"/><circle cx="582.2" cy="525.0" r="1.9" fill="#f5f2ec" fill-opacity="0.67"/><circle cx="832.3" cy="288.4" r="2.3" fill="#f5f2ec" fill-opacity="0.22"/>
</svg>