<svg xmlns="http://www.w3.org/2000/svg" width="1200" height="800" viewBox="0 0 1200 800">
  <defs>
    <radialGradient id="gecho1" cx="50%" cy="42%" r="75%">
      <stop offset="0%" stop-color="#ff7a47" stop-opacity="0.20"/>
      <stop offset="55%" stop-color="#0a0a0a" stop-opacity="0"/>
    </radialGradient>
    <linearGradient id="bgecho1" x1="0" y1="0" x2="0" y2="1">
      <stop offset="0%" stop-color="#0a0a0a"/>
      <stop offset="100%" stop-color="#000000"/>
    </linearGradient>
  </defs>
  <rect width="1200" height="800" fill="url(#bgecho1)"/>
  <rect width="1200" height="800" fill="url(#gecho1)"/>
  <circle cx="600" cy="360" r="72" fill="none" stroke="#f5f2ec" stroke-opacity="0.24000000000000002" stroke-width="1"/><circle cx="600" cy="360" r="115.99999999999999" fill="none" stroke="#ff5a1f" stroke-opacity="0.22" stroke-width="1"/><circle cx="600" cy="360" r="160" fill="none" stroke="#f5f2ec" stroke-opacity="0.2" stroke-width="1"/><circle cx="600" cy="360" r="204" fill="none" stroke="#ff5a1f" stroke-opacity="0.18" stroke-width="1"/><circle cx="600" cy="360" r="248" fill="none" stroke="#f5f2ec" stroke-opacity="0.16" stroke-width="1"/><circle cx="600" cy="360" r="292" fill="none" stroke="#ff5a1f" stroke-opacity="0.14" stroke-width="1"/><circle cx="600" cy="360" r="336.00000000000006" fill="none" stroke="#f5f2ec" stroke-opacity="0.12000000000000001" stroke-width="1"/><circle cx="586.6" cy="347.3" r="1.6" fill="#f5f2ec" fill-opacity="0.89"/><circle cx="791.3" cy="324.6" r="1.7" fill="#f5f2ec" fill-opacity="0.70"/><circle cx="272.1" cy="511.8" r="1.4" fill="#f5f2ec" fill-opacity="0.54"/><circle cx="750.3" cy="524.8" r="0.9" fill="#f5f2ec" fill-opacity="0.31"/><circle cx="504.7" cy="366.0" r="1.3" fill="#f5f2ec" fill-opacity="0.74"/><circle cx="564.1" cy="504.2" r="0.5" fill="#f5f2ec" fill-opacity="0.50"/><circle cx="322.7" cy="197.3" r="1.0" fill="#f5f2ec" fill-opacity="0.34"/><circle cx="451.6" cy="150.4" r="2.1" fill="#f5f2ec" fill-opacity="0.33"/><circle cx="555.0" cy="135.6" r="2.1" fill="#f5f2ec" fill-opacity="0.90"/><circle cx="621.4" cy="653.9" r="0.7" fill="#f5f2ec" fill-opacity="0.43"/><circle cx="442.9" cy="447.7" r="0.7" fill="#f5f2ec" fill-opacity="0.71"/><circle cx="483.6" cy="304.3" r="1.0" fill="#f5f2ec" fill-opacity="0.23"/><circle cx="353.7" cy="141.2" r="0.9" fill="#f5f2ec" fill-opacity="0.89"/><circle cx="553.8" cy="149.5" r="1.1" fill="#f5f2ec" fill-opacity="0.67"/><circle cx="938.1" cy="264.6" r="1.9" fill="#f5f2ec" fill-opacity="0.84"/><circle cx="779.9" cy="77.8" r="0.7" fill="#f5f2ec" fill-opacity="0.23"/><circle cx="735.5" cy="225.0" r="2.3" fill="#f5f2ec" fill-opacity="0.56"/><circle cx="884.1" cy="248.6" r="0.8" fill="#f5f2ec" fill-opacity="0.67"/><circle cx="726.8" cy="321.2" r="2.6" fill="#f5f2ec" fill-opacity="0.31"/><circle cx="503.6" cy="434.9" r="1.3" fill="#f5f2ec" fill-opacity="0.43"/><circle cx="455.9" cy="158.1" r="1.6" fill="#f5f2ec" fill-opacity="0.25"/><circle cx="721.2" cy="67.6" r="1.0" fill="#f5f2ec" fill-opacity="0.31"/><circle cx="485.7" cy="662.4" r="1.0" fill="#f5f2ec" fill-opacity="0.30"/><circle cx="446.1" cy="152.9" r="1.1" fill="#f5f2ec" fill-opacity="0.28"/><circle cx="660.3" cy="428.2" r="1.1" fill="#f5f2ec" fill-opacity="0.67"/><circle cx="527.0" cy="265.8" r="1.5" fill="#f5f2ec" fill-opacity="0.57"/><circle cx="677.8" cy="652.7" r="1.0" fill="#f5f2ec" fill-opacity="0.89"/><circle cx="929.0" cy="270.0" r="0.4" fill="#f5f2ec" fill-opacity="0.33"/><circle cx="959.3" cy="419.5" r="1.1" fill="#f5f2ec" fill-opacity="0.70"/><circle cx="674.8" cy="282.4" r="1.0" fill="#f5f2ec" fill-opacity="0.81"/><circle cx="691.8" cy="70.8" r="0.9" fill="#f5f2ec" fill-opacity="0.27"/><circle cx="739.3" cy="534.4" r="1.6" fill="#f5f2ec" fill-opacity="0.40"/><circle cx="753.8" cy="234.5" r="2.4" fill="#f5f2ec" fill-opacity="0.80"/><circle cx="398.1" cy="154.6" r="0.9" fill="#f5f2ec" fill-opacity="0.47"/><circle cx="541.1" cy="503.3" r="1.0" fill="#f5f2ec" fill-opacity="0.85"/><circle cx="743.8" cy="331.5" r="1.1" fill="#f5f2ec" fill-opacity="0.25"/><circle cx="917.2" cy="428.3" r="1.3" fill="#f5f2ec" fill-opacity="0.37"/><circle cx="798.7" cy="606.4" r="1.1" fill="#f5f2ec" fill-opacity="0.82"/><circle cx="362.5" cy="324.2" r="1.9" fill="#f5f2ec" fill-opacity="0.44"/><circle cx="608.0" cy="607.8" r="2.1" fill="#f5f2ec" fill-opacity="0.76"/><circle cx="759.7" cy="408.3" r="1.8" fill="#f5f2ec" fill-opacity="0.65"/><circle cx="806.5" cy="396.1" r="1.3" fill="#f5f2ec" fill-opacity="0.81"/><circle cx="469.1" cy="196.8" r="1.2" fill="#f5f2ec" fill-opacity="0.62"/><circle cx="952.4" cy="387.8" r="1.6" fill="#f5f2ec" fill-opacity="0.60"/><circle cx="518.9" cy="266.8" r="0.6" fill="#f5f2ec" fill-opacity="0.77"/><circle cx="795.5" cy="581.6" r="1.0" fill="#f5f2ec" fill-opacity="0.65"/><circle cx="526.4" cy="600.7" r="2.4" fill="#f5f2ec" fill-opacity="0.25"/><circle cx="718.0" cy="449.9" r="1.9" fill="#f5f2ec" fill-opacity="0.23"/><circle cx="376.8" cy="323.2" r="2.1" fill="#f5f2ec" fill-opacity="0.38"/><circle cx="918.2" cy="529.5" r="2.6" fill="#f5f2ec" fill-opacity="0.21"/><circle cx="679.1" cy="272.9" r="1.3" fill="#f5f2ec" fill-opacity="0.63"/><circle cx="374.4" cy="328.4" r="2.0" fill="#f5f2ec" fill-opacity="0.29"/><circle cx="522.8" cy="685.1" r="1.8" fill="#f5f2ec" fill-opacity="0.58"/><circle cx="743.6" cy="396.1" r="1.8" fill="#f5f2ec" fill-opacity="0.37"/><circle cx="764.7" cy="584.5" r="1.7" fill="#f5f2ec" fill-opacity="0.21"/><circle cx="659.3" cy="384.6" r="1.3" fill="#f5f2ec" fill-opacity="0.67"/><circle cx="411.9" cy="111.9" r="1.8" fill="#f5f2ec" fill-opacity="0.67"/><circle cx="653.3" cy="346.8" r="2.3" fill="#f5f2ec" fill-opacity="0.84"/><circle cx="929.4" cy="410.8" r="1.6" fill="#f5f2ec" fill-opacity="0.60"/><circle cx="514.9" cy="438.5" r="0.6" fill="#f5f2ec" fill-opacity="0.68"/><circle cx="568.1" cy="389.1" r="1.5" fill="#f5f2ec" fill-opacity="0.59"/><circle cx="466.7" cy="70.8" r="1.5" fill="#f5f2ec" fill-opacity="0.74"/><circle cx="813.1" cy="445.5" r="2.0" fill="#f5f2ec" fill-opacity="0.34"/><circle cx="829.9" cy="148.4" r="0.6" fill="#f5f2ec" fill-opacity="0.33"/><circle cx="580.1" cy="300.6" r="2.2" fill="#f5f2ec" fill-opacity="0.87"/><circle cx="418.4" cy="636.5" r="2.3" fill="#f5f2ec" fill-opacity="0.64"/><circle cx="320.9" cy="411.9" r="1.4" fill="#f5f2ec" fill-opacity="0.34"/><circle cx="819.1" cy="618.7" r="1.8" fill="#f5f2ec" fill-opacity="0.23"/><circle cx="369.2" cy="209.3" r="0.7" fill="#f5f2ec" fill-opacity="0.31"/><circle cx="784.4" cy="310.0" r="0.4" fill="#f5f2ec" fill-opacity="0.55"/><circle cx="429.0" cy="655.3" r="1.8" fill="#f5f2ec" fill-opacity="0.54"/><circle cx="892.8" cy="364.6" r="0.5" fill="#f5f2ec" fill-opacity="0.75"/><circle cx="753.5" cy="335.5" r="1.8" fill="#f5f2ec" fill-opacity="0.82"/><circle cx="361.4" cy="222.7" r="1.3" fill="#f5f2ec" fill-opacity="0.63"/><circle cx="303.5" cy="235.4" r="2.3" fill="#f5f2ec" fill-opacity="0.47"/><circle cx="618.2" cy="74.1" r="0.9" fill="#f5f2ec" fill-opacity="0.31"/><circle cx="778.2" cy="228.8" r="2.5" fill="#f5f2ec" fill-opacity="0.56"/><circle cx="449.2" cy="186.7" r="0.6" fill="#f5f2ec" fill-opacity="0.73"/><circle cx="374.9" cy="146.1" r="0.7" fill="#f5f2ec" fill-opacity="0.21"/><circle cx="673.8" cy="68.7" r="0.9" fill="#f5f2ec" fill-opacity="0.42"/><circle cx="598.1" cy="297.5" r="0.9" fill="#f5f2ec" fill-opacity="0.24"/><circle cx="477.9" cy="667.9" r="1.1" fill="#f5f2ec" fill-opacity="0.49"/><circle cx="533.5" cy="246.8" r="1.8" fill="#f5f2ec" fill-opacity="0.76"/><circle cx="468.1" cy="162.0" r="0.6" fill="#f5f2ec" fill-opacity="0.49"/><circle cx="816.4" cy="243.6" r="2.4" fill="#f5f2ec" fill-opacity="0.90"/><circle cx="472.3" cy="265.9" r="1.8" fill="#f5f2ec" fill-opacity="0.63"/><circle cx="309.4" cy="179.5" r="1.2" fill="#f5f2ec" fill-opacity="0.84"/><circle cx="835.6" cy="427.5" r="0.9" fill="#f5f2ec" fill-opacity="0.21"/><circle cx="350.4" cy="355.0" r="2.2" fill="#f5f2ec" fill-opacity="0.42"/><circle cx="726.7" cy="59.5" r="1.3" fill="#f5f2ec" fill-opacity="0.33"/><circle cx="345.4" cy="276.9" r="1.2" fill="#f5f2ec" fill-opacity="0.87"/><circle cx="446.4" cy="162.3" r="1.5" fill="#f5f2ec" fill-opacity="0.23"/><circle cx="467.7" cy="446.5" r="1.6" fill="#f5f2ec" fill-opacity="0.23"/><circle cx="399.0" cy="290.2" r="1.6" fill="#f5f2ec" fill-opacity="0.36"/><circle cx="724.0" cy="495.9" r="1.1" fill="#f5f2ec" fill-opacity="0.40"/><circle cx="406.0" cy="172.1" r="0.6" fill="#f5f2ec" fill-opacity="0.47"/><circle cx="756.7" cy="622.3" r="1.6" fill="#f5f2ec" fill-opacity="0.34"/><circle cx="574.8" cy="362.3" r="0.7" fill="#f5f2ec" fill-opacity="0.45"/><circle cx="286.6" cy="189.3" r="1.2" fill="#f5f2ec" fill-opacity="0.63"/><circle cx="367.5" cy="336.2" r="1.3" fill="#f5f2ec" fill-opacity="0.25"/><circle cx="365.9" cy="192.2" r="1.5" fill="#f5f2ec" fill-opacity="0.22"/><circle cx="559.3" cy="450.3" r="1.8" fill="#f5f2ec" fill-opacity="0.89"/><circle cx="822.6" cy="243.4" r="2.2" fill="#f5f2ec" fill-opacity="0.54"/><circle cx="785.6" cy="381.3" r="2.4" fill="#f5f2ec" fill-opacity="0.23"/><circle cx="408.0" cy="614.8" r="2.3" fill="#f5f2ec" fill-opacity="0.48"/><circle cx="610.8" cy="53.2" r="1.8" fill="#f5f2ec" fill-opacity="0.33"/><circle cx="745.3" cy="411.6" r="1.8" fill="#f5f2ec" fill-opacity="0.54"/><circle cx="352.8" cy="344.0" r="1.1" fill="#f5f2ec" fill-opacity="0.64"/><circle cx="652.6" cy="57.6" r="0.6" fill="#f5f2ec" fill-opacity="0.81"/><circle cx="391.6" cy="300.2" r="2.3" fill="#f5f2ec" fill-opacity="0.56"/><circle cx="470.0" cy="524.5" r="2.2" fill="#f5f2ec" fill-opacity="0.60"/><circle cx="700.6" cy="231.0" r="2.4" fill="#f5f2ec" fill-opacity="0.49"/><circle cx="598.6" cy="236.4" r="1.1" fill="#f5f2ec" fill-opacity="0.43"/><circle cx="521.4" cy="167.8" r="1.5" fill="#f5f2ec" fill-opacity="0.53"/><circle cx="438.8" cy="603.4" r="1.9" fill="#f5f2ec" fill-opacity="0.89"/><circle cx="925.9" cy="508.0" r="1.0" fill="#f5f2ec" fill-opacity="0.27"/><circle cx="370.5" cy="537.6" r="1.2" fill="#f5f2ec" fill-opacity="0.57"/><circle cx="396.2" cy="574.4" r="2.4" fill="#f5f2ec" fill-opacity="0.72"/><circle cx="771.6" cy="471.7" r="1.0" fill="#f5f2ec" fill-opacity="0.32"/><circle cx="516.5" cy="344.6" r="0.6" fill="#f5f2ec" fill-opacity="0.43"/><circle cx="432.8" cy="452.9" r="1.9" fill="#f5f2ec" fill-opacity="0.36"/><circle cx="886.9" cy="434.0" r="1.6" fill="#f5f2ec" fill-opacity="0.88"/><circle cx="673.4" cy="160.2" r="1.5" fill="#f5f2ec" fill-opacity="0.61"/><circle cx="538.8" cy="289.3" r="1.8" fill="#f5f2ec" fill-opacity="0.45"/><circle cx="570.6" cy="652.0" r="2.3" fill="#f5f2ec" fill-opacity="0.43"/><circle cx="621.5" cy="41.1" r="2.6" fill="#f5f2ec" fill-opacity="0.79"/><circle cx="710.9" cy="159.9" r="1.3" fill="#f5f2ec" fill-opacity="0.35"/><circle cx="853.0" cy="186.2" r="0.5" fill="#f5f2ec" fill-opacity="0.37"/><circle cx="754.1" cy="132.9" r="2.1" fill="#f5f2ec" fill-opacity="0.20"/><circle cx="422.4" cy="160.7" r="0.5" fill="#f5f2ec" fill-opacity="0.36"/><circle cx="900.7" cy="440.7" r="0.6" fill="#f5f2ec" fill-opacity="0.82"/><circle cx="672.2" cy="558.9" r="0.5" fill="#f5f2ec" fill-opacity="0.64"/><circle cx="462.5" cy="71.5" r="2.4" fill="#f5f2ec" fill-opacity="0.25"/><circle cx="849.4" cy="212.3" r="1.8" fill="#f5f2ec" fill-opacity="0.42"/><circle cx="912.6" cy="460.5" r="0.8" fill="#f5f2ec" fill-opacity="0.68"/><circle cx="755.9" cy="247.1" r="1.3" fill="#f5f2ec" fill-opacity="0.87"/><circle cx="691.2" cy="274.2" r="2.1" fill="#f5f2ec" fill-opacity="0.26"/><circle cx="393.2" cy="289.0" r="0.8" fill="#f5f2ec" fill-opacity="0.27"/><circle cx="683.9" cy="561.6" r="1.6" fill="#f5f2ec" fill-opacity="0.30"/><circle cx="798.6" cy="294.3" r="0.5" fill="#f5f2ec" fill-opacity="0.51"/><circle cx="665.5" cy="549.3" r="0.4" fill="#f5f2ec" fill-opacity="0.65"/><circle cx="951.5" cy="276.9" r="0.9" fill="#f5f2ec" fill-opacity="0.75"/><circle cx="427.6" cy="303.4" r="2.4" fill="#f5f2ec" fill-opacity="0.24"/><circle cx="681.1" cy="399.7" r="1.3" fill="#f5f2ec" fill-opacity="0.78"/><circle cx="495.2" cy="204.6" r="1.2" fill="#f5f2ec" fill-opacity="0.51"/><circle cx="388.9" cy="533.5" r="1.4" fill="#f5f2ec" fill-opacity="0.72"/><circle cx="497.3" cy="90.4" r="0.5" fill="#f5f2ec" fill-opacity="0.51"/><circle cx="390.3" cy="465.7" r="2.3" fill="#f5f2ec" fill-opacity="0.69"/><circle cx="683.3" cy="682.6" r="2.0" fill="#f5f2ec" fill-opacity="0.84"/><circle cx="772.2" cy="654.4" r="0.4" fill="#f5f2ec" fill-opacity="0.53"/><circle cx="764.7" cy="579.7" r="0.5" fill="#f5f2ec" fill-opacity="0.63"/><circle cx="691.7" cy="444.0" r="1.1" fill="#f5f2ec" fill-opacity="0.51"/><circle cx="562.1" cy="624.9" r="0.6" fill="#f5f2ec" fill-opacity="0.30"/><circle cx="557.1" cy="638.2" r="2.2" fill="#f5f2ec" fill-opacity="0.54"/><circle cx="237.5" cy="412.1" r="2.1" fill="#f5f2ec" fill-opacity="0.25"/><circle cx="721.2" cy="327.5" r="0.8" fill="#f5f2ec" fill-opacity="0.58"/><circle cx="339.9" cy="256.1" r="0.6" fill="#f5f2ec" fill-opacity="0.45"/><circle cx="446.3" cy="117.1" r="1.2" fill="#f5f2ec" fill-opacity="0.57"/><circle cx="507.2" cy="39.2" r="1.8" fill="#f5f2ec" fill-opacity="0.83"/><circle cx="605.6" cy="67.4" r="1.1" fill="#f5f2ec" fill-opacity="0.82"/><circle cx="673.5" cy="131.0" r="1.1" fill="#f5f2ec" fill-opacity="0.76"/><circle cx="925.4" cy="237.9" r="0.5" fill="#f5f2ec" fill-opacity="0.79"/><circle cx="369.7" cy="380.1" r="0.7" fill="#f5f2ec" fill-opacity="0.49"/><circle cx="432.1" cy="404.5" r="1.5" fill="#f5f2ec" fill-opacity="0.88"/><circle cx="529.4" cy="340.0" r="2.6" fill="#f5f2ec" fill-opacity="0.57"/><circle cx="581.4" cy="320.8" r="2.1" fill="#f5f2ec" fill-opacity="0.77"/><circle cx="667.9" cy="40.1" r="2.4" fill="#f5f2ec" fill-opacity="0.67"/><circle cx="898.3" cy="416.5" r="1.4" fill="#f5f2ec" fill-opacity="0.87"/><circle cx="327.6" cy="266.3" r="0.8" fill="#f5f2ec" fill-opacity="0.72"/><circle cx="713.2" cy="581.2" r="1.0" fill="#f5f2ec" fill-opacity="0.34"/><circle cx="512.2" cy="432.0" r="0.5" fill="#f5f2ec" fill-opacity="0.48"/><circle cx="871.1" cy="462.9" r="0.8" fill="#f5f2ec" fill-opacity="0.41"/><circle cx="275.0" cy="455.8" r="1.6" fill="#f5f2ec" fill-opacity="0.87"/><circle cx="445.4" cy="510.2" r="1.5" fill="#f5f2ec" fill-opacity="0.41"/><circle cx="389.9" cy="531.9" r="1.4" fill="#f5f2ec" fill-opacity="0.55"/><circle cx="741.5" cy="481.1" r="1.6" fill="#f5f2ec" fill-opacity="0.23"/><circle cx="707.7" cy="490.8" r="1.7" fill="#f5f2ec" fill-opacity="0.45"/><circle cx="938.4" cy="461.1" r="0.5" fill="#f5f2ec" fill-opacity="0.26"/><circle cx="696.5" cy="246.1" r="0.7" fill="#f5f2ec" fill-opacity="0.72"/><circle cx="327.0" cy="211.5" r="0.9" fill="#f5f2ec" fill-opacity="0.68"/><circle cx="393.3" cy="631.1" r="2.1" fill="#f5f2ec" fill-opacity="0.37"/><circle cx="589.8" cy="555.0" r="1.0" fill="#f5f2ec" fill-opacity="0.66"/><circle cx="785.6" cy="363.2" r="2.6" fill="#f5f2ec" fill-opacity="0.50"/><circle cx="499.5" cy="622.1" r="2.0" fill="#f5f2ec" fill-opacity="0.41"/><circle cx="491.4" cy="38.3" r="1.9" fill="#f5f2ec" fill-opacity="0.26"/><circle cx="496.8" cy="213.0" r="1.4" fill="#f5f2ec" fill-opacity="0.47"/><circle cx="860.8" cy="337.1" r="1.3" fill="#f5f2ec" fill-opacity="0.87"/><circle cx="808.7" cy="457.3" r="2.2" fill="#f5f2ec" fill-opacity="0.87"/><circle cx="843.9" cy="509.8" r="1.0" fill="#f5f2ec" fill-opacity="0.87"/><circle cx="671.1" cy="427.9" r="1.7" fill="#f5f2ec" fill-opacity="0.28"/><circle cx="498.0" cy="197.5" r="0.5" fill="#f5f2ec" fill-opacity="0.44"/><circle cx="377.5" cy="569.8" r="2.1" fill="#f5f2ec" fill-opacity="0.58"/><circle cx="527.5" cy="29.3" r="1.0" fill="#f5f2ec" fill-opacity="0.87"/><circle cx="342.1" cy="497.3" r="1.0" fill="#f5f2ec" fill-opacity="0.76"/><circle cx="290.5" cy="425.6" r="1.7" fill="#f5f2ec" fill-opacity="0.67"/><circle cx="664.0" cy="195.4" r="1.1" fill="#f5f2ec" fill-opacity="0.41"/><circle cx="576.1" cy="89.9" r="1.2" fill="#f5f2ec" fill-opacity="0.76"/><circle cx="582.2" cy="320.9" r="1.9" fill="#f5f2ec" fill-opacity="0.89"/><circle cx="550.8" cy="152.1" r="0.8" fill="#f5f2ec" fill-opacity="0.74"/><circle cx="416.7" cy="618.1" r="0.9" fill="#f5f2ec" fill-opacity="0.74"/><circle cx="725.8" cy="614.0" r="0.4" fill="#f5f2ec" fill-opacity="0.45"/><circle cx="544.3" cy="568.0" r="1.9" fill="#f5f2ec" fill-opacity="0.26"/><circle cx="363.7" cy="438.6" r="0.9" fill="#f5f2ec" fill-opacity="0.69"/><circle cx="673.9" cy="687.5" r="0.8" fill="#f5f2ec" fill-opacity="0.83"/><circle cx="402.1" cy="120.3" r="1.1" fill="#f5f2ec" fill-opacity="0.43"/><circle cx="748.9" cy="516.6" r="2.2" fill="#f5f2ec" fill-opacity="0.66"/><circle cx="643.1" cy="630.5" r="1.7" fill="#f5f2ec" fill-opacity="0.46"/><circle cx="844.0" cy="350.1" r="2.1" fill="#f5f2ec" fill-opacity="0.81"/><circle cx="341.0" cy="209.9" r="1.8" fill="#f5f2ec" fill-opacity="0.79"/><circle cx="890.5" cy="177.1" r="2.3" fill="#f5f2ec" fill-opacity="0.67"/><circle cx="442.6" cy="415.6" r="0.9" fill="#f5f2ec" fill-opacity="0.80"/><circle cx="711.7" cy="481.7" r="1.7" fill="#f5f2ec" fill-opacity="0.21"/><circle cx="877.4" cy="211.5" r="2.3" fill="#f5f2ec" fill-opacity="0.61"/><circle cx="511.2" cy="675.5" r="0.8" fill="#f5f2ec" fill-opacity="0.66"/><circle cx="854.1" cy="527.9" r="1.9" fill="#f5f2ec" fill-opacity="0.39"/><circle cx="521.8" cy="118.0" r="2.3" fill="#f5f2ec" fill-opacity="0.39"/><circle cx="562.0" cy="558.3" r="2.0" fill="#f5f2ec" fill-opacity="0.65"/><circle cx="574.9" cy="316.6" r="2.4" fill="#f5f2ec" fill-opacity="0.77"/><circle cx="620.4" cy="621.7" r="0.8" fill="#f5f2ec" fill-opacity="0.32"/><circle cx="553.7" cy="454.0" r="0.8" fill="#f5f2ec" fill-opacity="0.61"/>
</svg>