<svg xmlns="http://www.w3.org/2000/svg" width="1200" height="800" viewBox="0 0 1200 800">
  <defs>
    <radialGradient id="gsilent12" cx="50%" cy="42%" r="75%">
      <stop offset="0%" stop-color="#6b7b82" stop-opacity="0.20"/>
      <stop offset="55%" stop-color="#0c0c0d" stop-opacity="0"/>
    </radialGradient>
    <linearGradient id="bgsilent12" x1="0" y1="0" x2="0" y2="1">
      <stop offset="0%" stop-color="#0c0c0d"/>
      <stop offset="100%" stop-color="#000000"/>
    </linearGradient>
  </defs>
  <rect width="1200" height="800" fill="url(#bgsilent12)"/>
  <rect width="1200" height="800" fill="url(#gsilent12)"/>
  <path d="M0 800 L0 440.00000000000006 L120 285 L240 361 L360 308 L480 259 L600 400 L720 295 L840 354 L960 284 L1080 298 L1200 337 L1200 800 Z" fill="#34424a" fill-opacity="0.25"/><path d="M0 800 L0 536 L120 442 L240 435 L360 398 L480 500 L600 383 L720 431 L840 432 L960 382 L1080 470 L1200 401 L1200 800 Z" fill="#6b7b82" fill-opacity="0.43"/><path d="M0 800 L0 632 L120 603 L240 492 L360 577 L480 532 L600 539 L720 588 L840 512 L960 613 L1080 526 L1200 552 L1200 800 Z" fill="#aab4b8" fill-opacity="0.61"/><path d="M0 800 L0 728 L120 640 L240 669 L360 659 L480 628 L600 712 L720 628 L840 679 L960 658 L1080 644 L1200 679 L1200 800 Z" fill="#34424a" fill-opacity="0.79"/><circle cx="864" cy="224.00000000000003" r="56.00000000000001" fill="#aab4b8" fill-opacity="0.5"/>
</svg>